<svg width="96" height="96" viewBox="0 0 96 96" fill="none" xmlns="http://www.w3.org/2000/svg">
<rect width="96" height="96" rx="48" fill="white"/>
<path d="M41.9584 57.7291L41.8334 57.8L41.9584 57.7291Z" fill="#EE4D2D"/>
<path d="M62.0667 31.6083C62.0667 32.2714 61.8033 32.9072 61.3345 33.3761C60.8656 33.8449 60.2297 34.1083 59.5667 34.1083H55.9584L55.5417 36.5041C55.5163 36.6495 55.4406 36.7813 55.3279 36.8765C55.2152 36.9717 55.0726 37.0243 54.925 37.025H52.475C52.0883 37.025 51.7173 37.1786 51.4438 37.4521C51.1703 37.7256 51.0167 38.0965 51.0167 38.4833V50.45H53C53.1934 50.4508 53.3827 50.5053 53.5468 50.6076C53.7109 50.7099 53.8433 50.8559 53.9292 51.0291L55.1292 53.4208C55.3585 53.8847 55.4783 54.395 55.4792 54.9125V55.0583C53.2024 53.8972 50.6829 53.2919 48.1271 53.2919C45.5713 53.2919 43.0519 53.8972 40.775 55.0583V54.9125C40.776 54.395 40.8957 53.8847 41.125 53.4208L42.325 51.0291C42.4112 50.8552 42.5442 50.7089 42.7092 50.6065C42.8741 50.5042 43.0643 50.45 43.2584 50.45H45.2125V38.4833C45.2125 38.0965 45.0589 37.7256 44.7854 37.4521C44.5119 37.1786 44.141 37.025 43.7542 37.025H41.2917C41.1439 37.0251 41.0009 36.9728 40.888 36.8775C40.7751 36.7821 40.6997 36.6499 40.675 36.5041L40.2584 34.1083H36.6625C35.9995 34.1083 35.3636 33.8449 34.8948 33.3761C34.4259 32.9072 34.1625 32.2714 34.1625 31.6083C34.1625 31.4978 34.2064 31.3918 34.2846 31.3137C34.3627 31.2355 34.4687 31.1916 34.5792 31.1916H44.25C44.4119 31.1923 44.5716 31.1549 44.7163 31.0826C44.8611 31.0102 44.9868 30.9048 45.0834 30.775L45.7917 29.8583C45.9236 29.6826 45.9965 29.4697 46 29.25V27.3583C46.0005 27.0809 46.0589 26.8066 46.1715 26.553C46.2842 26.2995 46.4485 26.0723 46.6541 25.8859C46.8596 25.6996 47.1018 25.5583 47.3652 25.471C47.6285 25.3837 47.9072 25.3524 48.1834 25.3791C48.6881 25.4411 49.1516 25.6888 49.4836 26.074C49.8156 26.4591 49.9923 26.9541 49.9792 27.4625V29.2291C49.9791 29.4708 50.0631 29.7051 50.2167 29.8916L50.9875 30.8291C51.0855 30.9475 51.2083 31.0429 51.3473 31.1084C51.4863 31.174 51.638 31.2081 51.7917 31.2083H61.65C61.7577 31.2082 61.8612 31.2498 61.9389 31.3244C62.0166 31.399 62.0624 31.5007 62.0667 31.6083Z" fill="#EE4D2D"/>
<path d="M74.1167 74.3875C74.1167 74.7743 73.9631 75.1452 73.6896 75.4187C73.4161 75.6922 73.0451 75.8458 72.6584 75.8458H23.3417C22.9549 75.8458 22.584 75.6922 22.3105 75.4187C22.037 75.1452 21.8834 74.7743 21.8834 74.3875C21.8855 74.0014 22.0399 73.6317 22.3129 73.3587C22.5859 73.0857 22.9556 72.9314 23.3417 72.9292H25.6542L27.6625 69.45C27.8925 69.0477 28.1442 68.6582 28.4167 68.2833C28.5959 68.0333 28.7792 67.7958 28.9709 67.5667C29.7145 66.6708 30.5766 65.8802 31.5334 65.2167C31.7667 65.0583 32.0042 64.9042 32.2459 64.7583C32.2539 64.7555 32.2628 64.7555 32.2709 64.7583C32.5084 64.6208 32.7459 64.4875 32.9834 64.3667C33.3584 64.175 33.7417 64.0042 34.1292 63.85C34.9187 63.5397 35.7364 63.3067 36.5709 63.1542C36.825 63.1042 37.0792 63.0667 37.3375 63.0333C38.4307 62.9 39.536 62.9 40.6292 63.0333L41.0459 63.0917L41.425 63.1583C41.6167 63.1917 41.8084 63.2333 41.9959 63.275C42.1834 63.3167 42.375 63.3667 42.5625 63.4208C42.75 63.475 42.8917 63.5167 43.0584 63.5708C43.3209 63.6542 43.5834 63.75 43.8417 63.85C44.1 63.95 44.3584 64.0625 44.6084 64.1792C44.7375 64.2417 44.8625 64.3 44.9875 64.3667C45.2375 64.4958 45.4834 64.6333 45.725 64.7833C45.9667 64.9333 46.2042 65.0833 46.4375 65.2417C47.152 65.7272 47.8151 66.2843 48.4167 66.9042C48.6209 67.1167 48.8334 67.3208 49.0084 67.5667C49.2667 67.875 49.5125 68.1958 49.7459 68.5375C48.2563 69.766 47.0014 71.2538 46.0417 72.9292H49.5417L49.5959 72.8542C49.7792 72.6167 49.9709 72.3875 50.1667 72.1667C50.3625 71.9458 50.5834 71.7292 50.7792 71.5292L51.0959 71.2292C51.1215 71.2019 51.1494 71.1768 51.1792 71.1542L51.2625 71.0833C51.9385 70.4842 52.6775 69.9603 53.4667 69.5208C53.5167 69.4958 53.5625 69.4667 53.6125 69.4458C53.7348 69.3792 53.8556 69.3167 53.975 69.2583L54.325 69.0875C54.4195 69.0403 54.5153 68.9986 54.6125 68.9625C54.7209 68.9125 54.8292 68.8667 54.9417 68.825L55.2084 68.7208H55.2542C55.325 68.6917 55.4042 68.6667 55.4792 68.6417L55.8625 68.5125C56.0459 68.4542 56.2292 68.4 56.4125 68.3542C56.5959 68.3083 56.7834 68.2583 56.9667 68.2167L57.3834 68.1333L57.8 68.0625H57.85C58.1042 68.025 58.3625 67.9917 58.6209 67.9708C58.7834 67.9708 58.95 67.9417 59.1125 67.9333H59.4334H59.85H60.2667L60.7417 67.9542L61.0917 67.9833L61.4584 68.025C61.5959 68.025 61.7292 68.0583 61.875 68.0792L62.2084 68.1333L62.5375 68.1958H62.5875L62.7625 68.2333L63.0084 68.2917L63.1125 68.3167C63.2792 68.3583 63.4417 68.4 63.6042 68.45L63.8209 68.5167C64.0084 68.575 64.1959 68.6375 64.3792 68.7042C64.5625 68.7708 64.75 68.8458 64.9334 68.9208C65.05 68.9653 65.1667 69.0153 65.2834 69.0708L65.3792 69.1125H65.4167L65.8625 69.3333L65.925 69.3667C66.0875 69.45 66.2542 69.5375 66.4125 69.6333C66.5709 69.7292 66.7584 69.8375 66.9292 69.9458C67.1 70.0542 67.2209 70.1375 67.3459 70.2375C67.4709 70.3375 67.5417 70.375 67.6417 70.45C67.7417 70.525 67.9209 70.6625 68.0584 70.775L68.2375 70.9208C68.375 71.0333 68.5084 71.1542 68.6542 71.275C68.8 71.3958 68.8667 71.4708 68.9709 71.575C69.075 71.6792 69.1792 71.7792 69.2792 71.8875C69.4834 72.1 69.6959 72.3042 69.8709 72.55C69.9875 72.6875 70.1 72.8292 70.2125 72.9667H72.65C73.0318 72.9644 73.3993 73.1119 73.6735 73.3775C73.9478 73.6432 74.1069 74.0058 74.1167 74.3875Z" fill="#EE4D2D"/>
<path d="M60.7126 64.9541C60.4334 64.9541 60.1542 64.9333 59.8792 64.9333C57.1768 64.9258 54.5164 65.6023 52.1459 66.9C50.6874 64.7589 48.7247 63.0094 46.4309 61.8054C44.137 60.6015 41.5823 59.98 38.9917 59.9958H38.9042V59.975C39.0542 59.825 39.2084 59.6861 39.3667 59.5583C39.5084 59.4291 39.6542 59.3041 39.7834 59.1833C39.9126 59.0625 40.1667 58.875 40.3667 58.7291C40.5667 58.5833 40.6792 58.5041 40.8376 58.4L40.9251 58.3375C41.0959 58.2291 41.2709 58.1208 41.4459 58.0208C41.6209 57.9208 41.6834 57.8833 41.8042 57.8208L41.9292 57.75L42.0876 57.6666C42.2501 57.5833 42.4126 57.5041 42.5792 57.4291C42.7459 57.3541 42.8709 57.2958 42.9959 57.2375C43.0667 57.2083 43.1376 57.175 43.2126 57.15L43.2876 57.1208C43.4334 57.0625 43.5834 57.0041 43.7376 56.9541C43.8917 56.9041 44.1542 56.8208 44.3376 56.7625H44.3917C44.5751 56.7083 44.7626 56.6625 44.9501 56.6166C45.1376 56.5708 45.3667 56.5208 45.5667 56.4833C45.7667 56.4458 45.9501 56.4125 46.1459 56.3875C46.3417 56.3625 46.6501 56.3166 46.9084 56.2958L47.4209 56.2625H47.4667C47.6667 56.2625 47.8834 56.2625 48.0667 56.2625C48.2501 56.2625 48.4542 56.2625 48.6459 56.2625C48.6763 56.2582 48.7072 56.2582 48.7376 56.2625C48.9292 56.2625 49.1167 56.2625 49.3042 56.3C49.3611 56.2959 49.4182 56.2959 49.4751 56.3C49.6501 56.3 49.8209 56.3375 49.9917 56.3625C50.1626 56.3875 50.4084 56.4291 50.6292 56.4708C50.8501 56.5125 51.0459 56.5583 51.2626 56.6125C51.4792 56.6666 51.6792 56.7208 51.8876 56.7833C52.0959 56.8458 52.3042 56.9125 52.5042 56.9833L52.9209 57.1416C53.0334 57.1833 53.1376 57.2291 53.2459 57.275C53.2674 57.2815 53.2883 57.2898 53.3084 57.3C53.4459 57.3583 53.5792 57.4166 53.7251 57.4833C53.8709 57.55 54.0542 57.6416 54.2167 57.7291L54.3709 57.8125C54.5042 57.8833 54.6376 57.9583 54.7876 58.0416C54.8044 58.0466 54.8201 58.0552 54.8334 58.0666L55.0417 58.1958C55.1376 58.25 55.2292 58.3125 55.3251 58.3791C55.3957 58.4211 55.4638 58.467 55.5292 58.5166C55.6584 58.6041 55.7834 58.6916 55.9084 58.7875C56.0334 58.8833 56.0501 58.8916 56.1209 58.95C56.2709 59.0666 56.4209 59.1875 56.5667 59.3125C56.7126 59.4375 56.8626 59.5666 57.0042 59.7083C57.0229 59.7212 57.0397 59.7366 57.0542 59.7541C57.2126 59.9 57.3667 60.0541 57.5167 60.2125C57.6667 60.3708 57.9334 60.6291 58.1084 60.875C58.2459 61.0416 58.3834 61.2125 58.5251 61.3875C58.6667 61.5625 58.7167 61.6458 58.8084 61.7791C58.9001 61.9125 59.0251 62.0958 59.1292 62.2583C59.2334 62.4208 59.3376 62.5875 59.4334 62.7583L60.7126 64.9541Z" fill="#EE4D2D"/>
</svg>
