<svg width="96" height="96" viewBox="0 0 96 96" fill="none" xmlns="http://www.w3.org/2000/svg">
<rect width="96" height="96" rx="48" fill="white"/>
<path d="M79.388 56.3587H62.544C59.124 56.3587 59.496 53.5409 59.496 53.5409V48.8233C59.496 48.7234 59.4715 48.6251 59.4248 48.5368C59.3781 48.4485 59.3106 48.3728 59.228 48.3164L52.94 44.0418H52.8V38.1667H52.688C52.8471 38.1667 52.9997 38.1036 53.1123 37.9913C53.2248 37.8791 53.288 37.7268 53.288 37.568V35.4966C53.288 35.3378 53.2248 35.1855 53.1123 35.0732C52.9997 34.9609 52.8471 34.8979 52.688 34.8979H51.62V30.276H51.728C51.8871 30.276 52.0397 30.2129 52.1523 30.1007C52.2648 29.9884 52.328 29.8361 52.328 29.6773V27.6059C52.328 27.4471 52.2648 27.2948 52.1523 27.1826C52.0397 27.0703 51.8871 27.0072 51.728 27.0072H51.62C51.62 27.0072 51.52 24.9677 48.82 24.6125V23.6107C48.8189 23.4483 48.7536 23.293 48.6382 23.1786C48.5228 23.0642 48.3667 23 48.204 23H47.804C47.6434 23.0031 47.4904 23.0687 47.3776 23.1828C47.2647 23.2969 47.201 23.4504 47.2 23.6107V24.6165C44.5 24.9677 44.4 27.0112 44.4 27.0112H44.292C44.1329 27.0112 43.9803 27.0743 43.8677 27.1865C43.7552 27.2988 43.692 27.4511 43.692 27.6099V29.6813C43.692 29.8401 43.7552 29.9924 43.8677 30.1047C43.9803 30.2169 44.1329 30.28 44.292 30.28H44.4V34.8979H43.332C43.1729 34.8979 43.0203 34.9609 42.9077 35.0732C42.7952 35.1855 42.732 35.3378 42.732 35.4966V37.564C42.732 37.7228 42.7952 37.8751 42.9077 37.9874C43.0203 38.0996 43.1729 38.1627 43.332 38.1627H43.22V44.0418H43.06L36.772 48.3164C36.6894 48.3728 36.6219 48.4485 36.5752 48.5368C36.5285 48.6251 36.504 48.7234 36.504 48.8233V53.5409C36.504 53.5409 36.876 56.3587 33.456 56.3587H16.612C16.4497 56.3587 16.294 56.4231 16.1793 56.5376C16.0645 56.6521 16 56.8074 16 56.9694V73.3853C16 73.5477 16.0643 73.7034 16.179 73.8186C16.2937 73.9337 16.4493 73.9989 16.612 74H45.1V67.155C45.1 67.155 45.756 65.7142 47.94 65.7142C50.124 65.7142 50.9 67.155 50.9 67.155V74H79.388C79.5507 73.9989 79.7063 73.9337 79.821 73.8186C79.9357 73.7034 80 73.5477 80 73.3853V56.9694C80 56.8074 79.9355 56.6521 79.8208 56.5376C79.706 56.4231 79.5503 56.3587 79.388 56.3587ZM28.328 60.9806H30.108V64.6605H28.328V60.9806ZM20 60.9806H21.78V64.6605H20V60.9806ZM22.348 71.6492H19.436V67.7018C19.5803 67.4591 19.7908 67.2623 20.0429 67.1344C20.2951 67.0065 20.5784 66.9528 20.86 66.9794C21.1497 66.959 21.4397 67.0151 21.7009 67.1419C21.9621 67.2687 22.1853 67.4618 22.348 67.7018V71.6492ZM30.672 71.6492H27.76V67.7018C27.9057 67.4564 28.1187 67.2577 28.3738 67.129C28.6289 67.0003 28.9156 66.947 29.2 66.9754C29.4876 66.9571 29.7751 67.0146 30.0334 67.1421C30.2918 67.2696 30.512 67.4626 30.672 67.7018V71.6492ZM36.672 60.9806H38.456V64.6605H36.652L36.672 60.9806ZM39.02 71.6492H36.088V67.7018C36.2333 67.4591 36.4446 67.2625 36.6973 67.1346C36.95 67.0068 37.2339 66.953 37.516 66.9794C37.8052 66.9585 38.0949 67.0144 38.3555 67.1412C38.6161 67.2681 38.8385 67.4615 39 67.7018L39.02 71.6492ZM48 30.3798C48.3236 30.3798 48.6399 30.4755 48.9089 30.6549C49.178 30.8343 49.3876 31.0892 49.5115 31.3875C49.6353 31.6858 49.6677 32.014 49.6046 32.3307C49.5414 32.6473 49.3856 32.9382 49.1568 33.1665C48.928 33.3948 48.6365 33.5503 48.3192 33.6133C48.0018 33.6762 47.6729 33.6439 47.3739 33.5204C47.075 33.3968 46.8195 33.1876 46.6397 32.9191C46.46 32.6507 46.364 32.3351 46.364 32.0122C46.364 31.5793 46.5364 31.1641 46.8432 30.8579C47.15 30.5518 47.5661 30.3798 48 30.3798V30.3798ZM46.544 43.4072V39.4559C46.6883 39.2132 46.8988 39.0164 47.1509 38.8885C47.4031 38.7606 47.6864 38.7068 47.968 38.7334C48.2577 38.7131 48.5477 38.7691 48.8089 38.8959C49.0701 39.0227 49.2933 39.2158 49.456 39.4559V43.4072H46.544ZM49.228 46.3208C49.2288 46.5633 49.1574 46.8006 49.023 47.0026C48.8885 47.2046 48.697 47.3623 48.4727 47.4557C48.2484 47.549 48.0014 47.5739 47.7629 47.527C47.5244 47.4802 47.3052 47.3638 47.1331 47.1926C46.961 47.0214 46.8436 46.8031 46.7959 46.5653C46.7482 46.3275 46.7723 46.0809 46.8651 45.8568C46.9579 45.6327 47.1153 45.4411 47.3173 45.3063C47.5194 45.1714 47.757 45.0995 48 45.0995C48.325 45.0995 48.6367 45.228 48.8669 45.4569C49.0971 45.6859 49.2269 45.9965 49.228 46.3208V46.3208ZM47.2 63.4631H45.4V59.7832H47.2V63.4631ZM50.62 63.4631H48.82V59.7832H50.6L50.62 63.4631ZM52 56.9255H44V49.9129H52V56.9255ZM57.904 60.9926H59.688V64.6725H57.904V60.9926ZM60.252 71.6611H57.34V67.7018C57.4843 67.4591 57.6948 67.2623 57.9469 67.1344C58.1991 67.0065 58.4824 66.9528 58.764 66.9794C59.0537 66.959 59.3437 67.0151 59.6049 67.1419C59.8661 67.2687 60.0893 67.4618 60.252 67.7018V71.6611ZM74.56 60.9926H76.34V64.6725H74.56V60.9926ZM66.232 60.9926H68V64.6725H66.216L66.232 60.9926ZM68.58 71.6611H65.668V67.7018C65.8123 67.4591 66.0228 67.2623 66.2749 67.1344C66.5271 67.0065 66.8104 66.9528 67.092 66.9794C67.3817 66.959 67.6717 67.0151 67.9329 67.1419C68.1941 67.2687 68.4173 67.4618 68.58 67.7018V71.6611ZM76.908 71.6611H74V67.7018C74.1443 67.4591 74.3548 67.2623 74.6069 67.1344C74.8591 67.0065 75.1424 66.9528 75.424 66.9794C75.7137 66.959 76.0037 67.0151 76.2649 67.1419C76.5261 67.2687 76.7493 67.4618 76.912 67.7018L76.908 71.6611Z" fill="#EE4D2D"/>
</svg>
