<svg width="96" height="96" viewBox="0 0 96 96" fill="none" xmlns="http://www.w3.org/2000/svg">
<rect width="96" height="96" rx="48" fill="white"/>
<g clip-path="url(#clip0)">
<path d="M22 59.1109V74.4247C22 74.4988 22.0145 74.5722 22.0427 74.6407C22.0708 74.7092 22.1121 74.7714 22.1642 74.8238C22.2162 74.8762 22.278 74.9178 22.3461 74.9461C22.4141 74.9745 22.487 74.9891 22.5606 74.9891H26.9403V59.1109H22Z" fill="#EE4D2D"/>
<path d="M74 56.1981V34.1485C74.0005 34.0371 73.9682 33.9282 73.907 33.8355C73.8458 33.7427 73.7586 33.6705 73.6564 33.6278L72.8391 33.2819C72.6076 31.6945 71.9313 29.2113 69.9783 28.6215V26.7537C69.9854 26.6505 69.9714 26.547 69.9371 26.4496C69.9028 26.3521 69.849 26.2628 69.7789 26.1872C69.7089 26.1116 69.6241 26.0514 69.5299 26.0101C69.4358 25.9689 69.3342 25.9476 69.2315 25.9476C69.1288 25.9476 69.0272 25.9689 68.933 26.0101C68.8388 26.0514 68.7541 26.1116 68.684 26.1872C68.614 26.2628 68.5601 26.3521 68.5258 26.4496C68.4915 26.547 68.4775 26.6505 68.4846 26.7537V28.5487C66.3146 28.9637 65.7071 31.6508 65.5515 33.3147L64.8065 33.6314C64.701 33.6712 64.6099 33.7423 64.5454 33.8352C64.4808 33.9282 64.4457 34.0387 64.4448 34.1521V48.8033C64.4287 49.8086 64.0179 50.7666 63.3022 51.4679C62.5866 52.1693 61.6243 52.5569 60.6257 52.5462C60.0442 52.5485 59.4698 52.4188 58.945 52.1666C58.4203 51.9145 57.9588 51.5464 57.5949 51.0898C57.0802 50.4792 56.7948 49.7061 56.7884 48.9053V44.5361H57.6311C57.7671 44.5366 57.8993 44.4909 58.0062 44.4063C58.1132 44.3218 58.1886 44.2034 58.2204 44.0703C58.2522 43.9372 58.2385 43.7971 58.1814 43.6729C58.1244 43.5486 58.0273 43.4474 57.906 43.3856L48.7631 38.6887V36.4459H49.6203C49.8188 36.4459 50.0092 36.3665 50.1496 36.2252C50.29 36.0838 50.3689 35.8921 50.3689 35.6922V35.6922C50.3689 35.4923 50.29 35.3006 50.1496 35.1593C50.0092 35.018 49.8188 34.9385 49.6203 34.9385H48.7631V33.9482C48.7631 33.7483 48.6842 33.5566 48.5438 33.4153C48.4034 33.2739 48.213 33.1945 48.0145 33.1945C47.8159 33.1945 47.6255 33.2739 47.4851 33.4153C47.3447 33.5566 47.2658 33.7483 47.2658 33.9482V34.9385H46.3942C46.1957 34.9385 46.0052 35.018 45.8648 35.1593C45.7244 35.3006 45.6456 35.4923 45.6456 35.6922V35.6922C45.6456 35.8921 45.7244 36.0838 45.8648 36.2252C46.0052 36.3665 46.1957 36.4459 46.3942 36.4459H47.2514V38.6887L38.094 43.3746C37.9727 43.4365 37.8756 43.5377 37.8186 43.662C37.7615 43.7862 37.7478 43.9262 37.7796 44.0593C37.8114 44.1924 37.8868 44.3108 37.9938 44.3954C38.1007 44.4799 38.2329 44.5257 38.3689 44.5252H39.2116V48.8943C39.2052 49.6951 38.9198 50.4683 38.4051 51.0789C38.0414 51.5357 37.5799 51.9039 37.0551 52.1561C36.5304 52.4082 35.9558 52.5379 35.3743 52.5353C34.3744 52.5509 33.4091 52.1669 32.6899 51.4674C31.9706 50.7679 31.5561 49.8099 31.5371 48.8033V48.8033V34.1485C31.5341 34.0403 31.5001 33.9352 31.4391 33.8461C31.3781 33.7569 31.2928 33.6874 31.1935 33.646L30.4485 33.3292C30.2929 31.6471 29.6998 28.9601 27.519 28.5487V26.7537C27.519 26.5538 27.4401 26.3621 27.2997 26.2207C27.1593 26.0794 26.9689 26 26.7703 26C26.5718 26 26.3814 26.0794 26.241 26.2207C26.1006 26.3621 26.0217 26.5538 26.0217 26.7537V28.6215C24.0687 29.2113 23.3924 31.6945 23.1609 33.2819L22.3617 33.646C22.2589 33.6846 22.1698 33.7529 22.1055 33.8423C22.0412 33.9317 22.0045 34.0382 22 34.1485V56.1981H74ZM67.9566 37.7712C67.9505 37.3703 68.0385 36.9736 68.2134 36.6134C68.2771 36.3912 68.4109 36.1958 68.5945 36.0568C68.7782 35.9177 69.0017 35.8425 69.2315 35.8425C69.4612 35.8425 69.6848 35.9177 69.8684 36.0568C70.052 36.1958 70.1858 36.3912 70.2496 36.6134C70.423 36.9741 70.5109 37.3705 70.5063 37.7712V38.6632C70.5063 38.8133 70.4474 38.9572 70.3424 39.0636C70.2373 39.17 70.0948 39.2303 69.9458 39.2312H68.5172C68.3682 39.2303 68.2256 39.17 68.1206 39.0636C68.0155 38.9572 67.9566 38.8133 67.9566 38.6632V37.7712ZM69.2297 40.735C69.5631 40.7342 69.8893 40.8331 70.167 41.0191C70.4446 41.2051 70.6612 41.4699 70.7893 41.7798C70.9174 42.0898 70.9513 42.431 70.8867 42.7604C70.8221 43.0898 70.6618 43.3924 70.4263 43.6301C70.1907 43.8677 69.8904 44.0297 69.5634 44.0955C69.2364 44.1612 68.8973 44.1278 68.5892 43.9995C68.281 43.8712 68.0176 43.6537 67.8322 43.3746C67.6469 43.0955 67.5479 42.7674 67.5479 42.4316C67.5479 41.9823 67.725 41.5513 68.0403 41.2332C68.3556 40.9151 68.7833 40.7359 69.2297 40.735V40.735ZM67.5479 46.1964C67.5479 46.0515 67.6051 45.9126 67.7068 45.8102C67.8086 45.7078 67.9465 45.6502 68.0904 45.6502H70.3725C70.5164 45.6502 70.6544 45.7078 70.7561 45.8102C70.8579 45.9126 70.915 46.0515 70.915 46.1964V52.579C70.915 52.7238 70.8579 52.8627 70.7561 52.9652C70.6544 53.0676 70.5164 53.1251 70.3725 53.1251H68.0904C67.9465 53.1251 67.8086 53.0676 67.7068 52.9652C67.6051 52.8627 67.5479 52.7238 67.5479 52.579V46.1964ZM44.7378 47.4816C44.7378 44.9585 47.9928 45.2243 47.9928 45.2243C47.9928 45.2243 51.2477 44.9585 51.2477 47.4816V53.3072C51.2477 53.4572 51.1888 53.6011 51.0838 53.7075C50.9787 53.8139 50.8362 53.8742 50.6872 53.8752H45.2984C45.1494 53.8742 45.0068 53.8139 44.9018 53.7075C44.7967 53.6011 44.7378 53.4572 44.7378 53.3072V47.4816ZM25.4937 37.7712C25.4891 37.3705 25.577 36.9741 25.7505 36.6134C25.8277 36.398 25.9649 36.2096 26.1458 36.0707C26.3267 35.9319 26.5436 35.8485 26.7703 35.8306C26.9965 35.8492 27.2125 35.9329 27.3927 36.0717C27.5729 36.2105 27.7097 36.3985 27.7866 36.6134C27.959 36.9744 28.0456 37.3707 28.0398 37.7712V38.6632C28.0403 38.7377 28.0261 38.8114 27.9982 38.8803C27.9702 38.9492 27.929 39.0119 27.8769 39.0647C27.8248 39.1174 27.7628 39.1593 27.6946 39.1879C27.6263 39.2165 27.5531 39.2312 27.4792 39.2312H26.0579C25.9838 39.2312 25.9104 39.2165 25.842 39.188C25.7735 39.1595 25.7113 39.1176 25.6589 39.0649C25.6065 39.0121 25.565 38.9495 25.5366 38.8806C25.5083 38.8117 25.4937 38.7378 25.4937 38.6632V37.7712ZM26.7703 40.735C27.1037 40.735 27.4295 40.8345 27.7067 41.0209C27.9838 41.2073 28.1998 41.4723 28.3274 41.7823C28.455 42.0924 28.4883 42.4335 28.4233 42.7626C28.3583 43.0918 28.1978 43.3941 27.9621 43.6314C27.7264 43.8687 27.4261 44.0303 27.0991 44.0957C26.7722 44.1612 26.4333 44.1276 26.1254 43.9992C25.8174 43.8708 25.5542 43.6533 25.369 43.3743C25.1838 43.0952 25.085 42.7672 25.085 42.4316C25.085 41.9816 25.2626 41.5501 25.5786 41.2319C25.8947 40.9137 26.3234 40.735 26.7703 40.735V40.735ZM25.085 46.1964C25.085 46.0515 25.1421 45.9126 25.2439 45.8102C25.3456 45.7078 25.4836 45.6502 25.6275 45.6502H27.9096C28.0535 45.6502 28.1914 45.7078 28.2932 45.8102C28.3949 45.9126 28.4521 46.0515 28.4521 46.1964V52.579C28.4521 52.7238 28.3949 52.8627 28.2932 52.9652C28.1914 53.0676 28.0535 53.1251 27.9096 53.1251H25.6166C25.4746 53.1223 25.3394 53.0635 25.24 52.9614C25.1406 52.8592 25.085 52.722 25.085 52.579V46.1964Z" fill="#EE4D2D"/>
<path d="M29.9312 59.1109V75H31.537H39.2115V59.1109H29.9312Z" fill="#EE4D2D"/>
<path d="M56.7885 59.1109V75H64.463H66.0688V59.1109H56.7885Z" fill="#EE4D2D"/>
<path d="M69.0597 59.1109V75H73.4394C73.5131 75 73.586 74.9854 73.654 74.957C73.722 74.9287 73.7838 74.8871 73.8358 74.8347C73.8879 74.7823 73.9292 74.7201 73.9574 74.6516C73.9855 74.5831 74 74.5098 74 74.4357V59.1109H69.0597Z" fill="#EE4D2D"/>
<path d="M42.2061 59.1109V75H45.5081V65.0056C45.5081 64.8607 45.5652 64.7218 45.667 64.6194C45.7687 64.517 45.9067 64.4594 46.0506 64.4594H49.9602C50.104 64.4594 50.242 64.517 50.3438 64.6194C50.4455 64.7218 50.5027 64.8607 50.5027 65.0056V75H53.7974V59.1109H42.2061Z" fill="#EE4D2D"/>
</g>
<defs>
<clipPath id="clip0">
<rect width="52" height="49" fill="white" transform="translate(22 26)"/>
</clipPath>
</defs>
</svg>
