<svg width="96" height="96" viewBox="0 0 96 96" fill="none" xmlns="http://www.w3.org/2000/svg">
<rect width="96" height="96" rx="48" fill="white"/>
<path d="M72.5459 72.9292H59.2125L66.1334 66.75C66.228 66.6374 66.2799 66.495 66.2799 66.3479C66.2799 66.2008 66.228 66.0585 66.1334 65.9459L64.275 63.7292C64.1967 63.6364 64.0991 63.5619 63.989 63.5108C63.8789 63.4597 63.7589 63.4333 63.6375 63.4333H32.3667C32.2453 63.4333 32.1253 63.4597 32.0152 63.5108C31.9051 63.5619 31.8075 63.6364 31.7292 63.7292L29.8667 65.9459C29.7721 66.0585 29.7202 66.2008 29.7202 66.3479C29.7202 66.495 29.7721 66.6374 29.8667 66.75L36.8 72.9375H23.225C22.8389 72.9397 22.4693 73.0941 22.1962 73.3671C21.9232 73.6401 21.7689 74.0098 21.7667 74.3959C21.7667 74.7826 21.9203 75.1536 22.1938 75.4271C22.4673 75.7005 22.8383 75.8542 23.225 75.8542H72.5459C72.932 75.852 73.3016 75.6977 73.5746 75.4246C73.8477 75.1516 74.002 74.782 74.0042 74.3959C74.0053 74.2036 73.9684 74.0131 73.8956 73.8352C73.8228 73.6573 73.7155 73.4956 73.58 73.3593C73.4445 73.223 73.2834 73.1148 73.1059 73.041C72.9284 72.9672 72.7381 72.9292 72.5459 72.9292ZM49.4584 72.9292H46.5417V69.5292C46.5417 69.1424 46.6953 68.7715 46.9688 68.498C47.2423 68.2245 47.6133 68.0709 48 68.0709C48.3868 68.0709 48.7577 68.2245 49.0312 68.498C49.3047 68.7715 49.4584 69.1424 49.4584 69.5292V72.9292Z" fill="#EE4D2D"/>
<path d="M52.6042 60.5084H43.3959L45.0292 33.2917H50.9709L52.6042 60.5084Z" fill="#EE4D2D"/>
<path d="M54.7542 27.8292L52.525 30.5H43.4834L41.2459 27.8417C41.1824 27.7665 41.1476 27.6713 41.1476 27.5729C41.1476 27.4746 41.1824 27.3794 41.2459 27.3042L42.0584 26.3334C42.1175 26.2641 42.191 26.2084 42.2737 26.1703C42.3564 26.1322 42.4464 26.1124 42.5375 26.1125H44.4125L42.5834 23.925C42.5327 23.8641 42.5004 23.79 42.4903 23.7114C42.4802 23.6328 42.4927 23.553 42.5264 23.4813C42.56 23.4095 42.6135 23.3489 42.6804 23.3065C42.7473 23.264 42.825 23.2416 42.9042 23.2417H46.3334C46.3325 22.3975 46.4432 21.5569 46.6625 20.7417C46.8729 19.9524 47.1957 19.1975 47.6209 18.5L47.7459 18.2959C47.771 18.2449 47.8098 18.2019 47.8581 18.1719C47.9063 18.1419 47.962 18.126 48.0188 18.126C48.0756 18.126 48.1313 18.1419 48.1795 18.1719C48.2278 18.2019 48.2666 18.2449 48.2917 18.2959L48.4167 18.4959C49.2701 19.931 49.7153 21.572 49.7042 23.2417H53.1167C53.1959 23.2416 53.2736 23.264 53.3405 23.3065C53.4074 23.3489 53.4609 23.4095 53.4945 23.4813C53.5282 23.553 53.5408 23.6328 53.5307 23.7114C53.5206 23.79 53.4883 23.8641 53.4375 23.925L51.6084 26.1042H53.4792C53.5704 26.1033 53.6607 26.1226 53.7436 26.1608C53.8265 26.199 53.8998 26.2551 53.9584 26.325L54.7709 27.2917C54.832 27.3688 54.8639 27.4651 54.8609 27.5635C54.8578 27.6619 54.82 27.756 54.7542 27.8292Z" fill="#EE4D2D"/>
</svg>
