<svg width="96" height="96" viewBox="0 0 96 96" fill="none" xmlns="http://www.w3.org/2000/svg">
<rect width="96" height="96" rx="48" fill="white"/>
<path d="M48.0167 50.2L48 50.2167L47.9833 50.2H48.0167Z" fill="#EE4D2D"/>
<path d="M32.0917 48.5542V72.9292H29.175V48.5542C29.175 48.1674 29.3286 47.7965 29.6021 47.523C29.8756 47.2495 30.2466 47.0959 30.6333 47.0959C31.0194 47.098 31.3891 47.2524 31.6621 47.5254C31.9351 47.7984 32.0895 48.1681 32.0917 48.5542Z" fill="#EE4D2D"/>
<path d="M32.0917 48.5542V72.9292H29.175V48.5542C29.175 48.1674 29.3286 47.7965 29.6021 47.523C29.8756 47.2495 30.2466 47.0959 30.6333 47.0959C31.0194 47.098 31.3891 47.2524 31.6621 47.5254C31.9351 47.7984 32.0895 48.1681 32.0917 48.5542Z" fill="#F7F7F7"/>
<path d="M72.6583 72.9292H70.7875V45.4292C70.7875 45.0424 70.6339 44.6715 70.3604 44.398C70.0869 44.1245 69.7159 43.9708 69.3292 43.9708H67.6042V34.2875C67.6042 33.9007 67.4505 33.5298 67.177 33.2563C66.9035 32.9828 66.5326 32.8292 66.1458 32.8292H65.6375V27.4125C65.6375 27.0257 65.4839 26.6548 65.2104 26.3813C64.9369 26.1078 64.5659 25.9542 64.1792 25.9542H63.9125L63.0792 19.9583C63.0589 19.8026 62.9826 19.6596 62.8645 19.556C62.7464 19.4525 62.5946 19.3955 62.4375 19.3958C62.2802 19.3963 62.1283 19.4534 62.0097 19.5567C61.8911 19.66 61.8137 19.8026 61.7917 19.9583L60.9792 25.9542H60.7125C60.3257 25.9542 59.9548 26.1078 59.6813 26.3813C59.4078 26.6548 59.2542 27.0257 59.2542 27.4125V32.8292H58.7458C58.3591 32.8292 57.9881 32.9828 57.7146 33.2563C57.4411 33.5298 57.2875 33.9007 57.2875 34.2875V43.9708H55.5625C55.1757 43.9708 54.8048 44.1245 54.5313 44.398C54.2578 44.6715 54.1042 45.0424 54.1042 45.4292V50.2H48H41.8833V45.4292C41.8833 45.0424 41.7297 44.6715 41.4562 44.398C41.1827 44.1245 40.8118 43.9708 40.425 43.9708H38.7V34.2875C38.7 33.9007 38.5464 33.5298 38.2729 33.2563C37.9994 32.9828 37.6284 32.8292 37.2417 32.8292H36.75V27.4125C36.75 27.0257 36.5964 26.6548 36.3229 26.3813C36.0494 26.1078 35.6784 25.9542 35.2917 25.9542H35.025L34.1917 19.9583C34.1714 19.8026 34.0951 19.6596 33.977 19.556C33.8589 19.4525 33.7071 19.3955 33.55 19.3958C33.3927 19.3963 33.2408 19.4534 33.1222 19.5567C33.0036 19.66 32.9262 19.8026 32.9042 19.9583L32.0708 25.9542H31.8042C31.6125 25.9536 31.4226 25.991 31.2454 26.0641C31.0683 26.1372 30.9073 26.2446 30.7717 26.3801C30.6362 26.5156 30.5288 26.6766 30.4557 26.8538C30.3826 27.031 30.3453 27.2208 30.3458 27.4125V32.8292H29.8583C29.4716 32.8292 29.1006 32.9828 28.8271 33.2563C28.5536 33.5298 28.4 33.9007 28.4 34.2875V43.9708H26.675C26.2882 43.9708 25.9173 44.1245 25.6438 44.398C25.3703 44.6715 25.2167 45.0424 25.2167 45.4292V72.9292H23.3417C22.9556 72.9314 22.5859 73.0857 22.3129 73.3587C22.0399 73.6318 21.8855 74.0014 21.8833 74.3875C21.8833 74.7743 22.037 75.1452 22.3105 75.4187C22.584 75.6922 22.9549 75.8458 23.3417 75.8458H72.6583C73.0451 75.8458 73.416 75.6922 73.6895 75.4187C73.963 75.1452 74.1167 74.7743 74.1167 74.3875C74.1167 74.0007 73.963 73.6298 73.6895 73.3563C73.416 73.0828 73.0451 72.9292 72.6583 72.9292ZM32.0917 72.9292H29.175V48.5542C29.175 48.1674 29.3286 47.7965 29.6021 47.523C29.8756 47.2495 30.2466 47.0958 30.6333 47.0958C31.0194 47.098 31.3891 47.2524 31.6621 47.5254C31.9351 47.7984 32.0895 48.1681 32.0917 48.5542V72.9292ZM37.925 72.9292H35.0083V48.5542C35.0083 48.1674 35.162 47.7965 35.4355 47.523C35.709 47.2495 36.0799 47.0958 36.4667 47.0958C36.8528 47.098 37.2224 47.2524 37.4954 47.5254C37.7685 47.7984 37.9228 48.1681 37.925 48.5542V72.9292ZM41.8833 53.1167H45.1042L41.8833 56.3333V53.1167ZM54.1208 72.9292H41.8833V60.4625L48 54.3458L54.1208 60.4667V72.9292ZM54.1208 56.3417L50.9167 53.1167H54.1417L54.1208 56.3417ZM60.9958 72.9292H58.0792V48.5542C58.0792 48.1674 58.2328 47.7965 58.5063 47.523C58.7798 47.2495 59.1507 47.0958 59.5375 47.0958C59.9236 47.098 60.2933 47.2524 60.5663 47.5254C60.8393 47.7984 60.9936 48.1681 60.9958 48.5542V72.9292ZM66.8292 72.9292H63.9125V48.5542C63.9125 48.1674 64.0662 47.7965 64.3396 47.523C64.6131 47.2495 64.9841 47.0958 65.3708 47.0958C65.7569 47.098 66.1266 47.2524 66.3996 47.5254C66.6726 47.7984 66.827 48.1681 66.8292 48.5542V72.9292Z" fill="#EE4D2D"/>
<path d="M66.8292 48.5542V72.9292H63.9125V48.5542C63.9125 48.1674 64.0662 47.7965 64.3396 47.523C64.6131 47.2495 64.9841 47.0959 65.3708 47.0959C65.7569 47.098 66.1266 47.2524 66.3996 47.5254C66.6726 47.7984 66.827 48.1681 66.8292 48.5542Z" fill="#EE4D2D"/>
<path d="M66.8292 48.5542V72.9292H63.9125V48.5542C63.9125 48.1674 64.0662 47.7965 64.3396 47.523C64.6131 47.2495 64.9841 47.0959 65.3708 47.0959C65.7569 47.098 66.1266 47.2524 66.3996 47.5254C66.6726 47.7984 66.827 48.1681 66.8292 48.5542Z" fill="#F7F7F7"/>
</svg>
