<svg width="96" height="96" viewBox="0 0 96 96" fill="none" xmlns="http://www.w3.org/2000/svg">
<rect width="96" height="96" rx="48" fill="white"/>
<path fill-rule="evenodd" clip-rule="evenodd" d="M76.5479 72.6614H74.7598V48.7988C74.7595 48.5265 74.6956 48.258 74.5732 48.0144C74.4508 47.7709 74.2732 47.5589 74.0545 47.3953L67.5201 42.5039C67.2146 42.2768 66.8435 42.1541 66.4622 42.1541C66.0808 42.1541 65.7097 42.2768 65.4042 42.5039L63.1431 44.2087C63.1431 44.2087 62.3134 41.732 58.9943 41.732V37.8106C58.9943 37.5369 58.8851 37.2744 58.6905 37.0809C58.496 36.8874 58.2322 36.7787 57.9571 36.7787C57.682 36.7787 57.4182 36.8874 57.2237 37.0809C57.0292 37.2744 56.9199 37.5369 56.9199 37.8106V40.0809C56.9199 40.0809 56.0902 33.8892 49.4521 33.4764L48.3734 26.4881C48.3501 26.3516 48.279 26.2277 48.1727 26.1384C48.0664 26.049 47.9317 26 47.7926 26C47.6534 26 47.5187 26.049 47.4124 26.1384C47.3061 26.2277 47.235 26.3516 47.2117 26.4881L46.133 33.4764C39.495 33.8892 38.6652 40.0809 38.6652 40.0809V37.8106C38.6652 37.5369 38.5559 37.2744 38.3614 37.0809C38.1669 36.8874 37.9031 36.7787 37.628 36.7787C37.3529 36.7787 37.0891 36.8874 36.8946 37.0809C36.7001 37.2744 36.5908 37.5369 36.5908 37.8106V41.732C33.2717 41.732 32.442 44.2087 32.442 44.2087L30.1767 42.5039C29.8728 42.2768 29.503 42.1541 29.1229 42.1541C28.7429 42.1541 28.3731 42.2768 28.0691 42.5039L21.5306 47.3994C21.3115 47.5618 21.1336 47.7729 21.0111 48.0158C20.8886 48.2588 20.825 48.5269 20.8253 48.7988V72.6614H19.4521C19.067 72.6614 18.6976 72.8137 18.4253 73.0846C18.153 73.3555 18 73.723 18 74.1062C18 74.4893 18.153 74.8568 18.4253 75.1277C18.6976 75.3987 19.067 75.5509 19.4521 75.5509H76.5479C76.933 75.5509 77.3024 75.3987 77.5747 75.1277C77.847 74.8568 78 74.4893 78 74.1062C78 73.723 77.847 73.3555 77.5747 73.0846C77.3024 72.8137 76.933 72.6614 76.5479 72.6614ZM63.9729 55.0606C63.9729 54.5909 64.1604 54.1405 64.4942 53.8084C64.828 53.4763 65.2807 53.2898 65.7527 53.2898H66.7567C67.2288 53.2898 67.6815 53.4763 68.0153 53.8084C68.3491 54.1405 68.5366 54.5909 68.5366 55.0606V61.5453H63.9729V55.0606ZM65.7361 65.2603H66.7733C67.241 65.2603 67.6895 65.4452 68.0201 65.7742C68.3508 66.1032 68.5366 66.5494 68.5366 67.0146V72.6614H63.9729V67.0146C63.9729 66.5494 64.1587 66.1032 64.4893 65.7742C64.82 65.4452 65.2685 65.2603 65.7361 65.2603ZM55.6753 55.04C55.6753 54.5758 55.8606 54.1306 56.1905 53.8024C56.5204 53.4742 56.9678 53.2898 57.4344 53.2898H58.4799C58.7109 53.2898 58.9396 53.3351 59.1531 53.423C59.3665 53.511 59.5604 53.6399 59.7237 53.8024C59.8871 53.9649 60.0167 54.1579 60.1051 54.3702C60.1935 54.5825 60.239 54.8101 60.239 55.04V61.5453H55.6753V55.04ZM44.4735 51.4323C44.4735 50.5017 44.8451 49.6093 45.5064 48.9513C46.1677 48.2933 47.0647 47.9237 48 47.9237C48.9353 47.9237 49.8323 48.2933 50.4936 48.9513C51.1549 49.6093 51.5265 50.5017 51.5265 51.4323V61.5453H44.4735V51.4323ZM35.761 55.04C35.761 54.5758 35.9464 54.1306 36.2763 53.8024C36.6061 53.4742 37.0536 53.2898 37.5201 53.2898H38.5656C39.0322 53.2898 39.4796 53.4742 39.8095 53.8024C40.1394 54.1306 40.3247 54.5758 40.3247 55.04V61.5453H35.761V55.04ZM27.4634 55.04C27.4634 54.5747 27.6492 54.1285 27.9799 53.7995C28.3105 53.4705 28.759 53.2857 29.2267 53.2857H30.2639C30.4958 53.2857 30.7254 53.3312 30.9396 53.4196C31.1538 53.508 31.3483 53.6376 31.5121 53.8009C31.6759 53.9643 31.8057 54.1582 31.8941 54.3715C31.9824 54.5848 32.0277 54.8134 32.0271 55.0441V61.5453H27.4634V55.04ZM27.4634 67.0105C27.4634 66.7807 27.5089 66.5531 27.5973 66.3408C27.6857 66.1284 27.8153 65.9355 27.9786 65.773C28.142 65.6104 28.3359 65.4815 28.5493 65.3936C28.7628 65.3056 28.9915 65.2603 29.2225 65.2603H30.268C30.7346 65.2603 31.182 65.4447 31.5119 65.773C31.8418 66.1012 32.0271 66.5463 32.0271 67.0105V72.6614H27.4634V67.0105Z" fill="#EE4D2D"/>
</svg>
