<svg width="96" height="96" viewBox="0 0 96 96" fill="none" xmlns="http://www.w3.org/2000/svg">
<rect width="96" height="96" rx="48" fill="white"/>
<path d="M69.25 72.9292H67.7917V51.95C67.7895 51.6752 67.6788 51.4124 67.4836 51.2188C67.2885 51.0253 67.0248 50.9167 66.75 50.9167H66.3333V41.8083C66.7194 41.8062 67.0891 41.6518 67.3621 41.3788C67.6351 41.1058 67.7895 40.7361 67.7917 40.35C67.7917 39.9632 67.638 39.5923 67.3645 39.3188C67.091 39.0453 66.7201 38.8917 66.3333 38.8917V30.7417C66.3333 30.4654 66.2236 30.2005 66.0282 30.0051C65.8329 29.8098 65.5679 29.7 65.2917 29.7H64.5583C64.5581 28.8805 64.3096 28.0803 63.8454 27.4049C63.3813 26.7295 62.7233 26.2106 61.9583 25.9167V22.1167H64.875V19.2H61.9583V16.7H59.0417V19.2H56.125V22.1167H59.0417V25.9167C58.276 26.2109 57.6176 26.7304 57.1534 27.4066C56.6892 28.0828 56.441 28.884 56.4417 29.7042H55.7083C55.4321 29.7042 55.1671 29.8139 54.9718 30.0093C54.7764 30.2046 54.6667 30.4696 54.6667 30.7458V38.8917C54.2799 38.8917 53.909 39.0453 53.6355 39.3188C53.362 39.5923 53.2083 39.9632 53.2083 40.35C53.2083 40.7368 53.362 41.1077 53.6355 41.3812C53.909 41.6547 54.2799 41.8083 54.6667 41.8083V50.9167H54.25C53.9737 50.9167 53.7088 51.0264 53.5134 51.2218C53.3181 51.4171 53.2083 51.6821 53.2083 51.9583V51.7292C53.2081 51.4551 53.1479 51.1845 53.032 50.9362C52.9162 50.6879 52.7474 50.4679 52.5375 50.2917L42.1667 41.575V37.4333H45.0833V34.5167H42.1667V32.0167H39.25V34.5167H36.3333V37.4333H39.25V41.575L28.8792 50.2833C28.6693 50.4595 28.5005 50.6795 28.3846 50.9278C28.2687 51.1762 28.2086 51.4468 28.2083 51.7208V72.9292H26.75C26.3639 72.9314 25.9942 73.0857 25.7212 73.3587C25.4482 73.6317 25.2939 74.0014 25.2917 74.3875C25.2917 74.7743 25.4453 75.1452 25.7188 75.4187C25.9923 75.6922 26.3632 75.8458 26.75 75.8458H69.25C69.6361 75.8437 70.0058 75.6893 70.2788 75.4163C70.5518 75.1433 70.7062 74.7736 70.7083 74.3875C70.7083 74.0007 70.5547 73.6298 70.2812 73.3563C70.0077 73.0828 69.6368 72.9292 69.25 72.9292ZM40.7083 44.5958C41.3264 44.5958 41.9306 44.7791 42.4445 45.1225C42.9584 45.4659 43.3589 45.9539 43.5955 46.525C43.832 47.096 43.8939 47.7243 43.7733 48.3305C43.6527 48.9367 43.3551 49.4935 42.918 49.9306C42.481 50.3676 41.9242 50.6652 41.318 50.7858C40.7118 50.9064 40.0835 50.8445 39.5124 50.608C38.9414 50.3714 38.4534 49.9709 38.11 49.457C37.7666 48.9431 37.5833 48.3389 37.5833 47.7208C37.5833 46.892 37.9126 46.0972 38.4986 45.5111C39.0847 44.9251 39.8795 44.5958 40.7083 44.5958ZM43.2083 54.8042V59.3875C43.2083 59.6638 43.0986 59.9287 42.9032 60.1241C42.7079 60.3194 42.4429 60.4292 42.1667 60.4292H39.25C38.9737 60.4292 38.7088 60.3194 38.5134 60.1241C38.3181 59.9287 38.2083 59.6638 38.2083 59.3875V54.8042C38.2083 54.5279 38.3181 54.263 38.5134 54.0676C38.7088 53.8723 38.9737 53.7625 39.25 53.7625H42.1667C42.4429 53.7625 42.7079 53.8723 42.9032 54.0676C43.0986 54.263 43.2083 54.5279 43.2083 54.8042ZM34.0417 72.9292H31.125V68.5542C31.125 68.1674 31.2786 67.7965 31.5521 67.523C31.8256 67.2495 32.1966 67.0958 32.5833 67.0958C32.9694 67.098 33.3391 67.2524 33.6121 67.5254C33.8851 67.7984 34.0395 68.1681 34.0417 68.5542V72.9292ZM34.0417 60.4292H31.125V56.8875C31.125 56.5007 31.2786 56.1298 31.5521 55.8563C31.8256 55.5828 32.1966 55.4292 32.5833 55.4292C32.9694 55.4314 33.3391 55.5857 33.6121 55.8587C33.8851 56.1317 34.0395 56.5014 34.0417 56.8875V60.4292ZM44.4583 72.9292H36.9583V67.5125C36.9583 66.5179 37.3534 65.5641 38.0567 64.8609C38.7599 64.1576 39.7138 63.7625 40.7083 63.7625C41.7029 63.7625 42.6567 64.1576 43.36 64.8609C44.0632 65.5641 44.4583 66.5179 44.4583 67.5125V72.9292ZM50.2917 72.9292H47.375V68.5542C47.375 68.1674 47.5286 67.7965 47.8021 67.523C48.0756 67.2495 48.4466 67.0958 48.8333 67.0958C49.2194 67.098 49.5891 67.2524 49.8621 67.5254C50.1351 67.7984 50.2895 68.1681 50.2917 68.5542V72.9292ZM50.2917 60.4292H47.375V56.8875C47.375 56.5007 47.5286 56.1298 47.8021 55.8563C48.0756 55.5828 48.4466 55.4292 48.8333 55.4292C49.2194 55.4314 49.5891 55.5857 49.8621 55.8587C50.1351 56.1317 50.2895 56.5014 50.2917 56.8875V60.4292ZM61.9583 68.5542C61.9583 68.9409 61.8047 69.3119 61.5312 69.5854C61.2577 69.8589 60.8868 70.0125 60.5 70.0125C60.1132 70.0125 59.7423 69.8589 59.4688 69.5854C59.1953 69.3119 59.0417 68.9409 59.0417 68.5542V55.2208C59.0417 54.8341 59.1953 54.4631 59.4688 54.1896C59.7423 53.9162 60.1132 53.7625 60.5 53.7625C60.8861 53.7647 61.2558 53.919 61.5288 54.1921C61.8018 54.4651 61.9561 54.8347 61.9583 55.2208V68.5542ZM61.9583 47.9917H59.0417V44.7C59.0417 44.3132 59.1953 43.9423 59.4688 43.6688C59.7423 43.3953 60.1132 43.2417 60.5 43.2417C60.8861 43.2439 61.2558 43.3982 61.5288 43.6712C61.8018 43.9443 61.9561 44.3139 61.9583 44.7V47.9917ZM61.9583 37.4083H59.0417V34.1167C59.04 33.9154 59.0827 33.7163 59.1667 33.5333C59.261 33.3158 59.407 33.1245 59.5922 32.9763C59.7773 32.8282 59.9959 32.7275 60.2288 32.6831C60.4618 32.6387 60.702 32.652 60.9287 32.7218C61.1553 32.7915 61.3615 32.9157 61.5292 33.0833C61.6592 33.2118 61.7626 33.3648 61.8333 33.5333C61.9173 33.7163 61.96 33.9154 61.9583 34.1167V37.4083Z" fill="#EE4D2D"/>
</svg>
