<svg width="96" height="96" viewBox="0 0 96 96" fill="none" xmlns="http://www.w3.org/2000/svg">
<rect width="96" height="96" rx="48" fill="white"/>
<path d="M46.2125 42.9292V63.3917C46.5476 63.4989 46.8681 63.6473 47.1667 63.8333L50.8792 66.0417L56.6375 64.9V42.9292H46.2125ZM51.2125 53.7625H48.2959V50.8458H51.2125V53.7625ZM51.2125 47.9292H48.2959V45.0125H51.2125V47.9292Z" fill="#EE4D2D"/>
<path d="M31.6292 42.9292V65.6958L42.0458 63.6125V42.9292H31.6292ZM36.6042 59.5958H33.6875V56.6792H36.6042V59.5958ZM36.6042 53.7625H33.6875V50.8458H36.6042V53.7625ZM36.6042 47.9292H33.6875V45.0125H36.6042V47.9292Z" fill="#EE4D2D"/>
<path d="M60.7958 42.9292V64.0542L64.8 63.2583C65.9092 63.0378 67.0608 63.2352 68.0333 63.8125L71.2125 65.7V42.9292H60.7958ZM65.7958 53.7625H62.8792V50.8458H65.7958V53.7625ZM65.7958 47.9292H62.8792V45.0125H65.7958V47.9292Z" fill="#EE4D2D"/>
<path d="M74.0667 35.6375V38.5542C74.0667 38.9409 73.913 39.3119 73.6395 39.5854C73.366 39.8589 72.9951 40.0125 72.6083 40.0125H31.6292C29.8028 40.014 27.9982 39.6152 26.3425 38.8442C24.6868 38.0732 23.2202 36.9488 22.0458 35.55C21.9431 35.4283 21.8774 35.2797 21.8565 35.1219C21.8356 34.964 21.8604 34.8034 21.9279 34.6592C21.9954 34.515 22.1028 34.3931 22.2375 34.308C22.3721 34.223 22.5283 34.1782 22.6875 34.1792H31.6042V32.0958C31.6042 31.8748 31.692 31.6629 31.8482 31.5066C32.0045 31.3503 32.2165 31.2625 32.4375 31.2625H36.6042C36.8252 31.2625 37.0371 31.3503 37.1934 31.5066C37.3497 31.6629 37.4375 31.8748 37.4375 32.0958V34.1792H40.3542V33.5542C40.3542 33.3332 40.442 33.1212 40.5982 32.9649C40.7545 32.8086 40.9665 32.7208 41.1875 32.7208H55.7958C56.0168 32.7208 56.2288 32.8086 56.3851 32.9649C56.5414 33.1212 56.6292 33.3332 56.6292 33.5542V34.1792H63.9208V32.0958C63.9208 31.8748 64.0086 31.6629 64.1649 31.5066C64.3212 31.3503 64.5332 31.2625 64.7542 31.2625H67.2542C67.4752 31.2625 67.6871 31.3503 67.8434 31.5066C67.9997 31.6629 68.0875 31.8748 68.0875 32.0958V34.1792H72.6083C72.9951 34.1792 73.366 34.3328 73.6395 34.6063C73.913 34.8798 74.0667 35.2507 74.0667 35.6375Z" fill="#EE4D2D"/>
<path d="M74.0667 74.3875C74.0667 74.7743 73.913 75.1452 73.6396 75.4187C73.3661 75.6922 72.9951 75.8458 72.6084 75.8458H23.2917C22.9049 75.8458 22.534 75.6922 22.2605 75.4187C21.987 75.1452 21.8333 74.7743 21.8333 74.3875C21.8355 74.0014 21.9899 73.6317 22.2629 73.3587C22.5359 73.0857 22.9056 72.9314 23.2917 72.9292H29.4625V69.7792C29.4588 69.5836 29.5239 69.393 29.6466 69.2406C29.7692 69.0883 29.9415 68.9839 30.1333 68.9458L31.6292 68.65L42.0458 66.5667L44.4917 66.0833C44.6059 66.0633 44.7216 66.0535 44.8375 66.0542H44.9375C45.0445 66.0603 45.1505 66.077 45.2542 66.1042C45.4011 66.1411 45.5416 66.2001 45.6709 66.2792L46.2167 66.6042L48.0417 67.6875L49.9334 68.8125C50.0593 68.8852 50.164 68.9896 50.2371 69.1153C50.3102 69.2411 50.3491 69.3837 50.35 69.5292V72.8875H53.2667V69.5292C53.2667 69.1823 53.2176 68.8372 53.1208 68.5042L56.6417 67.8083L60.8083 66.975L65.3917 66.0708C65.5059 66.0508 65.6216 66.041 65.7375 66.0417H65.8375C65.9445 66.0478 66.0506 66.0645 66.1542 66.0917C66.2997 66.1328 66.4396 66.1916 66.5709 66.2667L70.8334 68.8C70.9593 68.8727 71.064 68.9771 71.1371 69.1028C71.2102 69.2286 71.2491 69.3712 71.25 69.5167V72.875H72.6459C72.8388 72.8798 73.0289 72.9229 73.2051 73.0018C73.3813 73.0806 73.5401 73.1937 73.6723 73.3344C73.8045 73.4751 73.9074 73.6406 73.9751 73.8214C74.0428 74.0022 74.0739 74.1946 74.0667 74.3875Z" fill="#EE4D2D"/>
</svg>
