<svg width="96" height="96" viewBox="0 0 96 96" fill="none" xmlns="http://www.w3.org/2000/svg">
<rect width="96" height="96" rx="48" fill="white"/>
<path d="M54.0958 36.4917H53.4417L54.9125 29.6375C54.939 29.5144 54.9372 29.387 54.9074 29.2647C54.8775 29.1424 54.8203 29.0284 54.7401 28.9314C54.66 28.8344 54.5588 28.7568 54.4443 28.7044C54.3299 28.6521 54.205 28.6263 54.0792 28.6292H52.4667L53.0542 27.1667C53.0795 27.1031 53.0888 27.0343 53.0812 26.9663C53.0736 26.8983 53.0494 26.8332 53.0106 26.7767C52.9719 26.7203 52.9199 26.6743 52.8592 26.6427C52.7985 26.6112 52.7309 26.5951 52.6625 26.5958H51.7208L49.6083 23.5708L49.1292 18.1125C49.1292 18.002 49.0853 17.896 49.0071 17.8179C48.929 17.7397 48.823 17.6958 48.7125 17.6958C48.602 17.6958 48.496 17.7397 48.4179 17.8179C48.3397 17.896 48.2958 18.002 48.2958 18.1125L47.8167 23.5708L45.7042 26.5958H44.7625C44.6941 26.5951 44.6265 26.6112 44.5658 26.6427C44.5051 26.6743 44.4531 26.7203 44.4143 26.7767C44.3756 26.8332 44.3514 26.8983 44.3438 26.9663C44.3362 27.0343 44.3455 27.1031 44.3708 27.1667L44.9417 28.6208H43.3292C43.2033 28.618 43.0785 28.6438 42.964 28.6961C42.8495 28.7484 42.7484 28.8261 42.6682 28.9231C42.588 29.0201 42.5308 29.1341 42.501 29.2563C42.4711 29.3786 42.4694 29.5061 42.4958 29.6292L43.9667 36.4833H43.3292C43.2033 36.4805 43.0785 36.5062 42.964 36.5586C42.8495 36.6109 42.7484 36.6886 42.6682 36.7856C42.588 36.8826 42.5308 36.9966 42.501 37.1188C42.4711 37.2411 42.4694 37.3686 42.4958 37.4917L43.9667 44.3417H43.3292C43.2033 44.3388 43.0785 44.3646 42.964 44.4169C42.8495 44.4693 42.7484 44.5469 42.6682 44.6439C42.588 44.7409 42.5308 44.8549 42.501 44.9772C42.4711 45.0995 42.4694 45.2269 42.4958 45.35L43.9667 52.2H43.3292C43.2033 52.1972 43.0785 52.2229 42.964 52.2753C42.8495 52.3276 42.7484 52.4052 42.6682 52.5022C42.588 52.5993 42.5308 52.7132 42.501 52.8355C42.4711 52.9578 42.4694 53.0853 42.4958 53.2083L43.9833 60.0833L43.175 64.25H54.25L53.4417 60.0833L54.9125 53.2292C54.939 53.1061 54.9372 52.9786 54.9074 52.8563C54.8775 52.7341 54.8203 52.6201 54.7401 52.5231C54.66 52.426 54.5588 52.3484 54.4443 52.2961C54.3299 52.2438 54.205 52.218 54.0792 52.2208H53.425L54.8958 45.3708C54.9223 45.2478 54.9205 45.1203 54.8907 44.998C54.8608 44.8757 54.8037 44.7618 54.7235 44.6647C54.6433 44.5677 54.5422 44.4901 54.4277 44.4378C54.3132 44.3854 54.1883 44.3597 54.0625 44.3625H53.4083L54.8792 37.5125C54.9069 37.3927 54.9078 37.2682 54.8817 37.148C54.8557 37.0277 54.8033 36.9148 54.7284 36.8172C54.6536 36.7196 54.558 36.6398 54.4486 36.5835C54.3392 36.5272 54.2188 36.4959 54.0958 36.4917ZM50.1583 28.6292L49.5042 31.1875C49.4805 31.2792 49.4264 31.3601 49.3507 31.4169C49.2749 31.4737 49.1821 31.503 49.0875 31.5H48.3208C48.2262 31.503 48.1334 31.4737 48.0577 31.4169C47.9819 31.3601 47.9278 31.2792 47.9042 31.1875L47.25 28.6292H50.1583ZM49.5042 54.8125C49.4805 54.9042 49.4264 54.9851 49.3507 55.0419C49.2749 55.0987 49.1821 55.128 49.0875 55.125H48.3208C48.2262 55.128 48.1334 55.0987 48.0577 55.0419C47.9819 54.9851 47.9278 54.9042 47.9042 54.8125L47.2375 52.2083H50.1542L49.5042 54.8125ZM49.5042 46.9542C49.4805 47.0458 49.4264 47.1267 49.3507 47.1835C49.2749 47.2403 49.1821 47.2697 49.0875 47.2667H48.3208C48.2262 47.2697 48.1334 47.2403 48.0577 47.1835C47.9819 47.1267 47.9278 47.0458 47.9042 46.9542L47.2375 44.35H50.1542L49.5042 46.9542ZM49.5042 39.0958C49.4805 39.1875 49.4264 39.2684 49.3507 39.3252C49.2749 39.382 49.1821 39.4113 49.0875 39.4083H48.3208C48.2262 39.4113 48.1334 39.382 48.0577 39.3252C47.9819 39.2684 47.9278 39.1875 47.9042 39.0958L47.2375 36.4917H50.1542L49.5042 39.0958Z" fill="#EE4D2D"/>
<path d="M74.0667 74.3875C74.0645 74.7736 73.9101 75.1432 73.6371 75.4163C73.3641 75.6893 72.9944 75.8436 72.6083 75.8458H23.2875C22.9007 75.8458 22.5298 75.6922 22.2563 75.4187C21.9828 75.1452 21.8292 74.7743 21.8292 74.3875C21.8314 74.0014 21.9857 73.6317 22.2587 73.3587C22.5317 73.0857 22.9014 72.9313 23.2875 72.9291H25.2667V70.8458C25.2667 70.6248 25.3545 70.4128 25.5107 70.2566C25.667 70.1003 25.879 70.0125 26.1 70.0125H34.6667V68C34.6667 67.779 34.7545 67.567 34.9107 67.4107C35.067 67.2544 35.279 67.1666 35.5 67.1666H58.525V65.0416C58.525 64.8206 58.6128 64.6087 58.7691 64.4524C58.9254 64.2961 59.1373 64.2083 59.3583 64.2083H69.9083C70.1293 64.2083 70.3413 64.2961 70.4976 64.4524C70.6539 64.6087 70.7417 64.8206 70.7417 65.0416V72.9291H72.6208C73.0054 72.9324 73.3732 73.0875 73.644 73.3607C73.9147 73.6338 74.0667 74.0029 74.0667 74.3875Z" fill="#EE4D2D"/>
</svg>
