<svg width="96" height="96" viewBox="0 0 96 96" fill="none" xmlns="http://www.w3.org/2000/svg">
<rect width="96" height="96" rx="48" fill="white"/>
<path d="M73.575 73.3583C73.4398 73.2239 73.2791 73.1178 73.1024 73.0463C72.9257 72.9748 72.7365 72.9392 72.5459 72.9417H68.5V54.6333H72.875L70.7917 46.0833C70.7477 45.9012 70.6435 45.7392 70.4961 45.6236C70.3487 45.5079 70.1666 45.4453 69.9792 45.4458H63.375V38.9667C63.375 38.7457 63.2872 38.5337 63.1309 38.3774C62.9747 38.2211 62.7627 38.1333 62.5417 38.1333H57.5042L56.3334 33.3333C56.2895 33.1519 56.186 32.9904 56.0394 32.8748C55.8928 32.7592 55.7117 32.6962 55.525 32.6958H51.6542L50.5 27.8917C50.4552 27.706 50.348 27.5414 50.1963 27.4253C50.0446 27.3093 49.8576 27.2488 49.6667 27.2542H49.1375L48.4167 17.7417C48.3459 16.825 47.6625 16.825 47.5834 17.7417L46.8667 27.2542H46.3334C46.1419 27.249 45.9545 27.3101 45.8027 27.4269C45.6509 27.5438 45.544 27.7094 45.5 27.8958L44.3709 32.6917H40.45C40.2633 32.692 40.0822 32.7551 39.9356 32.8707C39.7891 32.9863 39.6856 33.1477 39.6417 33.3292L38.5 38.1333H33.4583C33.2373 38.1333 33.0254 38.2211 32.8691 38.3774C32.7128 38.5337 32.625 38.7457 32.625 38.9667V45.4458H25.9583C25.7669 45.4407 25.5794 45.5017 25.4277 45.6186C25.2759 45.7355 25.169 45.9011 25.125 46.0875L23.125 54.6333H27.5V72.9292H23.225C22.8382 72.9292 22.4673 73.0828 22.1938 73.3563C21.9203 73.6298 21.7667 74.0007 21.7667 74.3875C21.7689 74.7736 21.9232 75.1433 22.1962 75.4163C22.4693 75.6893 22.8389 75.8436 23.225 75.8458H72.5459C72.9326 75.8458 73.3036 75.6922 73.5771 75.4187C73.8505 75.1452 74.0042 74.7743 74.0042 74.3875C74.005 74.196 73.9675 74.0062 73.8938 73.8295C73.8201 73.6527 73.7117 73.4925 73.575 73.3583ZM36.5167 67.1667H32.35V56.7083C32.35 56.1558 32.5695 55.6259 32.9602 55.2352C33.3509 54.8445 33.8808 54.625 34.4333 54.625C34.9859 54.625 35.5158 54.8445 35.9065 55.2352C36.2972 55.6259 36.5167 56.1558 36.5167 56.7083V67.1667ZM45.5625 67.1667H41.3959V56.7083C41.3959 56.1558 41.6153 55.6259 42.006 55.2352C42.3967 54.8445 42.9267 54.625 43.4792 54.625C44.0317 54.625 44.5616 54.8445 44.9523 55.2352C45.343 55.6259 45.5625 56.1558 45.5625 56.7083V67.1667ZM54.6042 67.1667H50.4375V56.7083C50.4375 56.1558 50.657 55.6259 51.0477 55.2352C51.4384 54.8445 51.9683 54.625 52.5209 54.625C53.0734 54.625 53.6033 54.8445 53.994 55.2352C54.3847 55.6259 54.6042 56.1558 54.6042 56.7083V67.1667ZM38.5 49.9583L41.7917 45.4458L47.125 38.1333L48 36.9333L48.875 38.1333L54.2125 45.4458L57.5042 49.9583H38.5ZM63.65 67.1667H59.4834V56.7083C59.4834 56.1558 59.7028 55.6259 60.0935 55.2352C60.4843 54.8445 61.0142 54.625 61.5667 54.625C62.1192 54.625 62.6491 54.8445 63.0398 55.2352C63.4305 55.6259 63.65 56.1558 63.65 56.7083V67.1667Z" fill="#EE4D2D"/>
</svg>
