<svg width="96" height="96" viewBox="0 0 96 96" fill="none" xmlns="http://www.w3.org/2000/svg">
<rect width="96" height="96" rx="48" fill="white"/>
<path d="M73.3625 70.3541H63.2833C63.4532 69.6273 63.4127 68.8672 63.1667 68.1625L57.1917 51.1583C60.0167 47.5541 66.0958 48.0958 67.9458 52.7833L74.3333 68.9291C74.3959 69.0873 74.4188 69.2584 74.4001 69.4274C74.3813 69.5965 74.3214 69.7584 74.2256 69.899C74.1299 70.0395 74.0011 70.1545 73.8507 70.2339C73.7002 70.3132 73.5326 70.3545 73.3625 70.3541Z" fill="#EE4D2D"/>
<path d="M59.6667 70.3542H46.5333C47.52 70.3492 48.5014 70.209 49.45 69.9375C52.0132 69.2196 54.2256 67.5895 55.6708 65.3542C55.7339 65.2591 55.7673 65.1474 55.7667 65.0333C55.7667 64.8775 55.7048 64.7281 55.5946 64.6179C55.4844 64.5077 55.335 64.4458 55.1792 64.4458H36.1833V63.5C36.1827 61.8997 35.9626 60.3071 35.5292 58.7667C36.0275 58.2362 36.2982 57.5318 36.2833 56.8042H38C38.0852 56.8042 38.1683 56.7781 38.2382 56.7294C38.3081 56.6807 38.3614 56.6118 38.3909 56.5318C38.4204 56.4519 38.4247 56.3649 38.4033 56.2825C38.3818 56.2001 38.3356 56.1262 38.2708 56.0708L34.7917 53.0208C34.6396 52.8872 34.4441 52.8135 34.2417 52.8135C34.0393 52.8135 33.8437 52.8872 33.6917 53.0208L30.2125 56.0708C30.1475 56.1264 30.1012 56.2007 30.0798 56.2835C30.0585 56.3663 30.0631 56.4537 30.0931 56.5338C30.1232 56.6139 30.1771 56.6828 30.2477 56.7312C30.3182 56.7796 30.402 56.805 30.4875 56.8042H32.1667C32.1518 57.5318 32.4226 58.2362 32.9208 58.7667C32.4874 60.3071 32.2673 61.8997 32.2667 63.5V64.4458H25.0208C24.9151 64.4459 24.8113 64.4746 24.7204 64.5287C24.6296 64.5829 24.555 64.6606 24.5047 64.7537C24.4543 64.8467 24.43 64.9516 24.4343 65.0573C24.4386 65.163 24.4714 65.2655 24.5292 65.3542C25.5222 66.8803 26.8809 68.1341 28.4818 69.0015C30.0827 69.8689 31.8751 70.3224 33.6958 70.3208H22.0833C21.9416 70.3091 21.8046 70.2636 21.684 70.1882C21.5634 70.1127 21.4626 70.0095 21.39 69.8872C21.3174 69.7648 21.2751 69.6269 21.2667 69.4849C21.2583 69.3429 21.284 69.2009 21.3417 69.0708L28.8333 47.8292C30.1583 44.0458 34.325 43.4167 36.6292 45.8875L39.9625 36.4C41.5667 31.8167 47.3083 31.8167 48.9125 36.4L55.4167 54.9125L60.4167 69.125C60.4703 69.2547 60.4925 69.3951 60.4816 69.535C60.4706 69.6749 60.4269 69.8102 60.3538 69.93C60.2807 70.0498 60.1804 70.1506 60.061 70.2243C59.9416 70.298 59.8065 70.3425 59.6667 70.3542Z" fill="#EE4D2D"/>
<path d="M75.8625 73.2708H19.85C19.0446 73.2708 18.3917 73.9237 18.3917 74.7291C18.3917 75.5346 19.0446 76.1875 19.85 76.1875H75.8625C76.6679 76.1875 77.3208 75.5346 77.3208 74.7291C77.3208 73.9237 76.6679 73.2708 75.8625 73.2708Z" fill="#EE4D2D"/>
</svg>
