<?xml version="1.0" encoding="UTF-8"?>
<svg width="1024px" height="1024px" viewBox="0 0 1024 1024" version="1.1" xmlns="http://www.w3.org/2000/svg" xmlns:xlink="http://www.w3.org/1999/xlink">
    <!-- Generator: Sketch 46.2 (44496) - http://www.bohemiancoding.com/sketch -->
    <title>facebook</title>
    <desc>Created with Sketch.</desc>
    <defs></defs>
    <g id="Page-1" stroke="none" stroke-width="1" fill="none" fill-rule="evenodd">
        <g id="facebook" fill-rule="nonzero" fill="#675754">
            <path d="M512,42.6666667 C252.794357,42.6666667 42.6666667,252.794357 42.6666667,512 C42.6666667,771.205643 252.794357,981.333333 512,981.333333 C771.205643,981.333333 981.333333,771.205643 981.333333,512 C981.333333,252.794357 771.205643,42.6666667 512,42.6666667 Z M512,0 C794.769792,-5.19439681e-14 1024,229.230208 1024,512 C1024,794.769792 794.769792,1024 512,1024 C229.230208,1024 3.46293121e-14,794.769792 0,512 C-3.46293121e-14,229.230208 229.230208,5.19439681e-14 512,0 Z" id="Rectangle-6-Copy" opacity="0.900000036"></path>
            <path d="M469.333333,345.616979 C469.333333,375.482445 469.333333,405.347911 469.333333,436.280001 C441.223529,436.280001 413.113726,436.280001 384,436.280001 C384,466.145467 384,496.010933 384,526.943023 C412.109804,526.943023 440.219608,526.943023 469.333333,526.943023 C469.333333,606.939808 469.333333,688.003215 469.333333,768 C497.443137,768 525.552941,768 554.666667,768 C554.666667,688.003215 554.666667,606.939808 554.666667,526.943023 C582.776471,526.943023 610.886274,526.943023 640,526.943023 C640,497.077557 640,467.212091 640,436.280001 C611.890196,436.280001 583.780392,436.280001 554.666667,436.280001 C554.666667,416.014149 554.666667,395.748297 554.666667,376.549069 C554.666667,359.483088 567.717647,346.683602 582.776471,346.683602 C601.85098,346.683602 620.92549,346.683602 638.996078,346.683602 C638.996078,316.818136 638.996078,286.95267 638.996078,256.02058 C610.886274,256.02058 582.776471,256.02058 553.662745,256.02058 C507.482353,254.953956 469.333333,295.48566 469.333333,345.616979 Z" id="Shape-Copy"></path>
        </g>
    </g>
</svg>