<?xml version="1.0" encoding="UTF-8"?>
<svg width="1024px" height="1024px" viewBox="0 0 1024 1024" version="1.1" xmlns="http://www.w3.org/2000/svg" xmlns:xlink="http://www.w3.org/1999/xlink">
    <!-- Generator: Sketch 46.2 (44496) - http://www.bohemiancoding.com/sketch -->
    <title>instragram</title>
    <desc>Created with Sketch.</desc>
    <defs></defs>
    <g id="Page-1" stroke="none" stroke-width="1" fill="none" fill-rule="evenodd">
        <g id="instragram" fill="#675754">
            <g id="bg" opacity="0.900000036" fill-rule="nonzero">
                <path d="M512,42.6666667 C252.794357,42.6666667 42.6666667,252.794357 42.6666667,512 C42.6666667,771.205643 252.794357,981.333333 512,981.333333 C771.205643,981.333333 981.333333,771.205643 981.333333,512 C981.333333,252.794357 771.205643,42.6666667 512,42.6666667 Z M512,0 C794.769792,-5.19439681e-14 1024,229.230208 1024,512 C1024,794.769792 794.769792,1024 512,1024 C229.230208,1024 3.46293121e-14,794.769792 0,512 C-3.46293121e-14,229.230208 229.230208,5.19439681e-14 512,0 Z" id="Mask"></path>
            </g>
            <path d="M349.866669,298.666667 C321.589688,298.666667 298.666667,321.589688 298.666667,349.866669 L298.666667,674.133331 C298.666667,702.410312 321.589688,725.333333 349.866669,725.333333 L674.133331,725.333333 C702.410312,725.333333 725.333333,702.410312 725.333333,674.133331 L725.333333,349.866669 C725.333333,321.589688 702.410312,298.666667 674.133331,298.666667 L349.866669,298.666667 Z M349.866669,256 L674.133331,256 C725.974461,256 768,298.025539 768,349.866669 L768,674.133331 C768,725.974461 725.974461,768 674.133331,768 L349.866669,768 C298.025539,768 256,725.974461 256,674.133331 L256,349.866669 C256,298.025539 298.025539,256 349.866669,256 Z" id="Rectangle-9" fill-rule="nonzero"></path>
            <path d="M512,597.333333 C559.128299,597.333333 597.333333,559.128299 597.333333,512 C597.333333,464.871701 559.128299,426.666667 512,426.666667 C464.871701,426.666667 426.666667,464.871701 426.666667,512 C426.666667,559.128299 464.871701,597.333333 512,597.333333 Z M512,640 C441.307552,640 384,582.692448 384,512 C384,441.307552 441.307552,384 512,384 C582.692448,384 640,441.307552 640,512 C640,582.692448 582.692448,640 512,640 Z" id="Oval" fill-rule="nonzero"></path>
            <rect id="Rectangle-10" x="597.333333" y="426.666667" width="170.666667" height="42.6666667" rx="1"></rect>
            <path d="M661.333333,298.666667 C625.987109,298.666667 597.333333,327.320443 597.333333,362.666667 C597.333333,398.012891 625.987109,426.666667 661.333333,426.666667 C696.679557,426.666667 725.333333,398.012891 725.333333,362.666667 C725.333333,327.320443 696.679557,298.666667 661.333333,298.666667 Z M661.333333,256 C720.243707,256 768,303.756293 768,362.666667 C768,421.57704 720.243707,469.333333 661.333333,469.333333 C602.42296,469.333333 554.666667,421.57704 554.666667,362.666667 C554.666667,303.756293 602.42296,256 661.333333,256 Z" id="Rectangle-11" fill-rule="nonzero"></path>
            <polygon id="Path-2" points="594.020833 259.942708 594.020833 440.15625 536.114583 395.46875 449.010417 440.15625 298.666667 440.15625 298.666667 278.979167"></polygon>
        </g>
    </g>
</svg>